{
  "accessors": [
    {
      "bufferView": 2,
      "componentType": 5126,
      "count": 8361,
      "max": [
        14.04166030883789,
        0.10353700071573257,
        1.8439559936523438
      ],
      "min": [
        -3.8996999263763428,
        -0.10353399813175201,
        -25.000133514404297
      ],
      "type": "VEC3"
    },
    {
      "bufferView": 2,
      "byteOffset": 100332,
      "componentType": 5126,
      "count": 8361,
      "max": [
        0.9999970197677612,
        1.0,
        0.9999970197677612
      ],
      "min": [
        -0.9999987483024597,
        -1.0,
        -1.0
      ],
      "type": "VEC3"
    },
    {
      "bufferView": 3,
      "componentType": 5126,
      "count": 8361,
      "max": [
        0.9999999403953552,
        1.0,
        0.9999955296516418,
        1.0
      ],
      "min": [
        -0.9999552965164185,
        -1.0,
        -0.9999967813491821,
        1.0
      ],
      "type": "VEC4"
    },
    {
      "bufferView": 1,
      "componentType": 5126,
      "count": 8361,
      "max": [
        0.7764790058135986,
        0.9997140169143677
      ],
      "min": [
        0.0002859999949578196,
        0.0002859999949578196
      ],
      "type": "VEC2"
    },
    {
      "bufferView": 0,
      "componentType": 5125,
      "count": 44496,
      "type": "SCALAR"
    },
    {
      "bufferView": 2,
      "byteOffset": 200664,
      "componentType": 5126,
      "count": 2082,
      "max": [
        7.94532585144043,
        11.555156707763672,
        19.944236755371094
      ],
      "min": [
        -4.775434970855713,
        -1.265671968460083,
        -15.628336906433105
      ],
      "type": "VEC3"
    },
    {
      "bufferView": 2,
      "byteOffset": 225648,
      "componentType": 5126,
      "count": 2082,
      "max": [
        1.0,
        0.9826841354370117,
        1.0
      ],
      "min": [
        -1.0,
        -0.9747582674026489,
        -1.0
      ],
      "type": "VEC3"
    },
    {
      "bufferView": 3,
      "byteOffset": 133776,
      "componentType": 5126,
      "count": 2082,
      "max": [
        1.0,
        1.0,
        1.0,
        1.0
      ],
      "min": [
        -1.0,
        -1.0,
        -1.0,
        1.0
      ],
      "type": "VEC4"
    },
    {
      "bufferView": 1,
      "byteOffset": 66888,
      "componentType": 5126,
      "count": 2082,
      "max": [
        0.9992380142211914,
        0.9955999851226807
      ],
      "min": [
        0.0007619999814778566,
        0.0007619999814778566
      ],
      "type": "VEC2"
    },
    {
      "bufferView": 0,
      "byteOffset": 177984,
      "componentType": 5125,
      "count": 4560,
      "type": "SCALAR"
    },
    {
      "bufferView": 2,
      "byteOffset": 250632,
      "componentType": 5126,
      "count": 970,
      "max": [
        1.0227910280227661,
        1.1810150146484375,
        19.944229125976563
      ],
      "min": [
        -22.91027069091797,
        -13.164505004882813,
        -25.418956756591797
      ],
      "type": "VEC3"
    },
    {
      "bufferView": 2,
      "byteOffset": 262272,
      "componentType": 5126,
      "count": 970,
      "max": [
        1.0,
        0.9870323538780212,
        1.0
      ],
      "min": [
        -1.0,
        -0.9799177646636963,
        -1.0
      ],
      "type": "VEC3"
    },
    {
      "bufferView": 3,
      "byteOffset": 167088,
      "componentType": 5126,
      "count": 970,
      "max": [
        1.0,
        1.0,
        1.0,
        1.0
      ],
      "min": [
        -0.9872633814811707,
        -1.0,
        -1.0,
        1.0
      ],
      "type": "VEC4"
    },
    {
      "bufferView": 1,
      "byteOffset": 83544,
      "componentType": 5126,
      "count": 970,
      "max": [
        0.9645609855651855,
        0.9994999766349792
      ],
      "min": [
        0.0005000000237487257,
        0.0005000000237487257
      ],
      "type": "VEC2"
    },
    {
      "bufferView": 0,
      "byteOffset": 196224,
      "componentType": 5125,
      "count": 2172,
      "type": "SCALAR"
    },
    {
      "bufferView": 2,
      "byteOffset": 273912,
      "componentType": 5126,
      "count": 1156,
      "max": [
        0.761568009853363,
        0.761568009853363,
        0.1942099928855896
      ],
      "min": [
        -0.7615669965744019,
        -0.7615669965744019,
        -0.1942099928855896
      ],
      "type": "VEC3"
    },
    {
      "bufferView": 2,
      "byteOffset": 287784,
      "componentType": 5126,
      "count": 1156,
      "max": [
        1.0,
        1.0,
        1.0
      ],
      "min": [
        -1.0,
        -1.0,
        -1.0
      ],
      "type": "VEC3"
    },
    {
      "bufferView": 3,
      "byteOffset": 182608,
      "componentType": 5126,
      "count": 1156,
      "max": [
        0.9950778484344482,
        0.9899793267250061,
        1.0,
        1.0
      ],
      "min": [
        -0.9951869249343872,
        -0.9894330501556396,
        -1.0,
        1.0
      ],
      "type": "VEC4"
    },
    {
      "bufferView": 1,
      "byteOffset": 91304,
      "componentType": 5126,
      "count": 1156,
      "max": [
        0.7080199718475342,
        0.9997869729995728
      ],
      "min": [
        0.00021300000662449747,
        0.00021300000662449747
      ],
      "type": "VEC2"
    },
    {
      "bufferView": 0,
      "byteOffset": 204912,
      "componentType": 5125,
      "count": 3828,
      "type": "SCALAR"
    },
    {
      "bufferView": 2,
      "byteOffset": 301656,
      "componentType": 5126,
      "count": 482,
      "max": [
        1.040693998336792,
        1.2016899585723877,
        3.3115200996398926
      ],
      "min": [
        -1.0406949520111084,
        -1.2016910314559937,
        -1.9315110445022583
      ],
      "type": "VEC3"
    },
    {
      "bufferView": 2,
      "byteOffset": 307440,
      "componentType": 5126,
      "count": 482,
      "max": [
        1.0,
        0.8660255670547485,
        1.0
      ],
      "min": [
        -1.0,
        -0.8660255670547485,
        -1.0
      ],
      "type": "VEC3"
    },
    {
      "bufferView": 3,
      "byteOffset": 201104,
      "componentType": 5126,
      "count": 482,
      "max": [
        1.0,
        0.999980628490448,
        0.9232028126716614,
        1.0
      ],
      "min": [
        -1.0,
        -0.9849018454551697,
        -1.0,
        1.0
      ],
      "type": "VEC4"
    },
    {
      "bufferView": 1,
      "byteOffset": 100552,
      "componentType": 5126,
      "count": 482,
      "max": [
        0.9997100234031677,
        0.9729700088500977
      ],
      "min": [
        0.0002899999963119626,
        0.0002899999963119626
      ],
      "type": "VEC2"
    },
    {
      "bufferView": 0,
      "byteOffset": 220224,
      "componentType": 5125,
      "count": 888,
      "type": "SCALAR"
    },
    {
      "bufferView": 2,
      "byteOffset": 313224,
      "componentType": 5126,
      "count": 24,
      "max": [
        0.8565379977226257,
        0.9372450113296509,
        0.89656001329422
      ],
      "min": [
        -0.8560050129890442,
        -0.9363170266151428,
        -1.6211539506912231
      ],
      "type": "VEC3"
    },
    {
      "bufferView": 2,
      "byteOffset": 313512,
      "componentType": 5126,
      "count": 24,
      "max": [
        0.9960676431655884,
        0.8626198768615723,
        -0.08859597146511078
      ],
      "min": [
        -0.995668888092041,
        -0.8624494075775146,
        -0.09297098964452744
      ],
      "type": "VEC3"
    },
    {
      "bufferView": 3,
      "byteOffset": 208816,
      "componentType": 5126,
      "count": 24,
      "max": [
        0.08977141231298447,
        0.26008695363998413,
        -0.9614031314849854,
        1.0
      ],
      "min": [
        -0.17817716300487518,
        -0.2041945904493332,
        -0.9946370124816895,
        1.0
      ],
      "type": "VEC4"
    },
    {
      "bufferView": 1,
      "byteOffset": 104408,
      "componentType": 5126,
      "count": 24,
      "max": [
        0.39551201462745667,
        0.7728279829025269
      ],
      "min": [
        0.015475999563932419,
        0.018780000507831573
      ],
      "type": "VEC2"
    },
    {
      "bufferView": 0,
      "byteOffset": 223776,
      "componentType": 5125,
      "count": 36,
      "type": "SCALAR"
    },
    {
      "bufferView": 2,
      "byteOffset": 313800,
      "componentType": 5126,
      "count": 500,
      "max": [
        5.185431957244873,
        5.185375213623047,
        194.78927612304688
      ],
      "min": [
        -5.18536376953125,
        -5.185420989990234,
        -25.426055908203125
      ],
      "type": "VEC3"
    },
    {
      "bufferView": 2,
      "byteOffset": 319800,
      "componentType": 5126,
      "count": 500,
      "max": [
        1.0,
        1.0,
        1.0
      ],
      "min": [
        -1.0,
        -1.0,
        -1.0
      ],
      "type": "VEC3"
    },
    {
      "bufferView": 3,
      "byteOffset": 209200,
      "componentType": 5126,
      "count": 500,
      "max": [
        1.0,
        1.0,
        1.0,
        1.0
      ],
      "min": [
        -1.0,
        -1.0,
        -1.0,
        1.0
      ],
      "type": "VEC4"
    },
    {
      "bufferView": 1,
      "byteOffset": 104600,
      "componentType": 5126,
      "count": 500,
      "max": [
        0.9867349863052368,
        0.9997230172157288
      ],
      "min": [
        0.0002770000137388706,
        0.0002770000137388706
      ],
      "type": "VEC2"
    },
    {
      "bufferView": 0,
      "byteOffset": 223920,
      "componentType": 5125,
      "count": 1428,
      "type": "SCALAR"
    },
    {
      "bufferView": 2,
      "byteOffset": 325800,
      "componentType": 5126,
      "count": 2032,
      "max": [
        0.3275049924850464,
        0.3275049924850464,
        5.757543087005615
      ],
      "min": [
        -0.3275049924850464,
        -0.3275049924850464,
        -0.06883899867534637
      ],
      "type": "VEC3"
    },
    {
      "bufferView": 2,
      "byteOffset": 350184,
      "componentType": 5126,
      "count": 2032,
      "max": [
        1.0,
        1.0,
        1.0
      ],
      "min": [
        -1.0,
        -1.0,
        -1.0
      ],
      "type": "VEC3"
    },
    {
      "bufferView": 3,
      "byteOffset": 217200,
      "componentType": 5126,
      "count": 2032,
      "max": [
        0.9999802112579346,
        0.999363124370575,
        1.0,
        1.0
      ],
      "min": [
        -0.9993587136268616,
        -0.9993633031845093,
        -1.0,
        1.0
      ],
      "type": "VEC4"
    },
    {
      "bufferView": 1,
      "byteOffset": 108600,
      "componentType": 5126,
      "count": 2032,
      "max": [
        0.7575610280036926,
        0.9997130036354065
      ],
      "min": [
        0.00028700000257231295,
        0.00028700000257231295
      ],
      "type": "VEC2"
    },
    {
      "bufferView": 0,
      "byteOffset": 229632,
      "componentType": 5125,
      "count": 7284,
      "type": "SCALAR"
    }
  ],
  "asset": {
    "extras": {
      "author": "gozdemrl (https://sketchfab.com/gozdemrl)",
      "license": "CC-BY-4.0 (http://creativecommons.org/licenses/by/4.0/)",
      "source": "https://sketchfab.com/3d-models/clock-street-lamp-vintage-043dfbe13d8041289e277e175df2f279",
      "title": "Clock Street Lamp - Vintage"
    },
    "generator": "Sketchfab-13.23.0",
    "version": "2.0"
  },
  "bufferViews": [
    {
      "buffer": 0,
      "byteLength": 258768,
      "name": "floatBufferViews",
      "target": 34963
    },
    {
      "buffer": 0,
      "byteLength": 124856,
      "byteOffset": 258768,
      "byteStride": 8,
      "name": "floatBufferViews",
      "target": 34962
    },
    {
      "buffer": 0,
      "byteLength": 374568,
      "byteOffset": 383624,
      "byteStride": 12,
      "name": "floatBufferViews",
      "target": 34962
    },
    {
      "buffer": 0,
      "byteLength": 249712,
      "byteOffset": 758192,
      "byteStride": 16,
      "name": "floatBufferViews",
      "target": 34962
    }
  ],
  "buffers": [
    {
      "byteLength": 1007904,
      "uri": "scene.bin"
    }
  ],
  "images": [
    {
      "uri": "textures/post_baseColor.jpeg"
    },
    {
      "uri": "textures/post_metallicRoughness.png"
    },
    {
      "uri": "textures/post_normal.png"
    },
    {
      "uri": "textures/metal_baseColor.jpeg"
    },
    {
      "uri": "textures/metal_metallicRoughness.png"
    },
    {
      "uri": "textures/metal_normal.png"
    },
    {
      "uri": "textures/Lamp_baseColor.jpeg"
    },
    {
      "uri": "textures/Lamp_metallicRoughness.png"
    },
    {
      "uri": "textures/Lamp_normal.png"
    },
    {
      "uri": "textures/Glass_baseColor.jpeg"
    },
    {
      "uri": "textures/Glass_metallicRoughness.png"
    },
    {
      "uri": "textures/Glass_emissive.jpeg"
    },
    {
      "uri": "textures/Glass_normal.png"
    },
    {
      "uri": "textures/Clock_baseColor.jpeg"
    },
    {
      "uri": "textures/Clock_metallicRoughness.png"
    },
    {
      "uri": "textures/Clock_normal.png"
    },
    {
      "uri": "textures/support_baseColor.jpeg"
    },
    {
      "uri": "textures/support_metallicRoughness.png"
    },
    {
      "uri": "textures/support_normal.png"
    },
    {
      "uri": "textures/akrep_baseColor.jpeg"
    },
    {
      "uri": "textures/akrep_metallicRoughness.png"
    },
    {
      "uri": "textures/akrep_normal.png"
    },
    {
      "uri": "textures/pattern_baseColor.jpeg"
    },
    {
      "uri": "textures/pattern_metallicRoughness.png"
    },
    {
      "uri": "textures/pattern_normal.png"
    }
  ],
  "materials": [
    {
      "doubleSided": true,
      "name": "post",
      "normalTexture": {
        "index": 2
      },
      "occlusionTexture": {
        "index": 1
      },
      "pbrMetallicRoughness": {
        "baseColorTexture": {
          "index": 0
        },
        "metallicRoughnessTexture": {
          "index": 1
        }
      }
    },
    {
      "doubleSided": true,
      "name": "metal",
      "normalTexture": {
        "index": 5
      },
      "occlusionTexture": {
        "index": 4
      },
      "pbrMetallicRoughness": {
        "baseColorTexture": {
          "index": 3
        },
        "metallicRoughnessTexture": {
          "index": 4
        }
      }
    },
    {
      "doubleSided": true,
      "name": "Lamp",
      "normalTexture": {
        "index": 8
      },
      "occlusionTexture": {
        "index": 7
      },
      "pbrMetallicRoughness": {
        "baseColorTexture": {
          "index": 6
        },
        "metallicRoughnessTexture": {
          "index": 7
        }
      }
    },
    {
      "doubleSided": true,
      "emissiveFactor": [
        1.0,
        1.0,
        1.0
      ],
      "emissiveTexture": {
        "index": 11
      },
      "name": "Glass",
      "normalTexture": {
        "index": 12
      },
      "occlusionTexture": {
        "index": 10
      },
      "pbrMetallicRoughness": {
        "baseColorTexture": {
          "index": 9
        },
        "metallicRoughnessTexture": {
          "index": 10
        }
      }
    },
    {
      "doubleSided": true,
      "name": "Clock",
      "normalTexture": {
        "index": 15
      },
      "occlusionTexture": {
        "index": 14
      },
      "pbrMetallicRoughness": {
        "baseColorTexture": {
          "index": 13
        },
        "metallicRoughnessTexture": {
          "index": 14
        }
      }
    },
    {
      "doubleSided": true,
      "name": "support",
      "normalTexture": {
        "index": 18
      },
      "occlusionTexture": {
        "index": 17
      },
      "pbrMetallicRoughness": {
        "baseColorTexture": {
          "index": 16
        },
        "metallicRoughnessTexture": {
          "index": 17
        }
      }
    },
    {
      "doubleSided": true,
      "name": "akrep",
      "normalTexture": {
        "index": 21
      },
      "occlusionTexture": {
        "index": 20
      },
      "pbrMetallicRoughness": {
        "baseColorTexture": {
          "index": 19
        },
        "metallicRoughnessTexture": {
          "index": 20
        }
      }
    },
    {
      "doubleSided": true,
      "name": "pattern",
      "normalTexture": {
        "index": 24
      },
      "occlusionTexture": {
        "index": 23
      },
      "pbrMetallicRoughness": {
        "baseColorTexture": {
          "index": 22
        },
        "metallicRoughnessTexture": {
          "index": 23
        }
      }
    }
  ],
  "meshes": [
    {
      "name": "defaultMaterial",
      "primitives": [
        {
          "attributes": {
            "NORMAL": 1,
            "POSITION": 0,
            "TANGENT": 2,
            "TEXCOORD_0": 3
          },
          "indices": 4,
          "material": 7,
          "mode": 4
        }
      ]
    },
    {
      "name": "defaultMaterial",
      "primitives": [
        {
          "attributes": {
            "NORMAL": 6,
            "POSITION": 5,
            "TANGENT": 7,
            "TEXCOORD_0": 8
          },
          "indices": 9,
          "material": 6,
          "mode": 4
        }
      ]
    },
    {
      "name": "defaultMaterial",
      "primitives": [
        {
          "attributes": {
            "NORMAL": 11,
            "POSITION": 10,
            "TANGENT": 12,
            "TEXCOORD_0": 13
          },
          "indices": 14,
          "material": 5,
          "mode": 4
        }
      ]
    },
    {
      "name": "defaultMaterial",
      "primitives": [
        {
          "attributes": {
            "NORMAL": 16,
            "POSITION": 15,
            "TANGENT": 17,
            "TEXCOORD_0": 18
          },
          "indices": 19,
          "material": 4,
          "mode": 4
        }
      ]
    },
    {
      "name": "defaultMaterial",
      "primitives": [
        {
          "attributes": {
            "NORMAL": 21,
            "POSITION": 20,
            "TANGENT": 22,
            "TEXCOORD_0": 23
          },
          "indices": 24,
          "material": 2,
          "mode": 4
        }
      ]
    },
    {
      "name": "defaultMaterial",
      "primitives": [
        {
          "attributes": {
            "NORMAL": 26,
            "POSITION": 25,
            "TANGENT": 27,
            "TEXCOORD_0": 28
          },
          "indices": 29,
          "material": 3,
          "mode": 4
        }
      ]
    },
    {
      "name": "defaultMaterial",
      "primitives": [
        {
          "attributes": {
            "NORMAL": 31,
            "POSITION": 30,
            "TANGENT": 32,
            "TEXCOORD_0": 33
          },
          "indices": 34,
          "material": 1,
          "mode": 4
        }
      ]
    },
    {
      "name": "defaultMaterial",
      "primitives": [
        {
          "attributes": {
            "NORMAL": 36,
            "POSITION": 35,
            "TANGENT": 37,
            "TEXCOORD_0": 38
          },
          "indices": 39,
          "material": 0,
          "mode": 4
        }
      ]
    }
  ],
  "nodes": [
    {
      "children": [
        1
      ],
      "matrix": [
        1.0,
        0.0,
        0.0,
        0.0,
        0.0,
        2.220446049250313e-16,
        -1.0,
        0.0,
        0.0,
        1.0,
        2.220446049250313e-16,
        0.0,
        0.0,
        0.0,
        0.0,
        1.0
      ],
      "name": "Sketchfab_model"
    },
    {
      "children": [
        2,
        4,
        6,
        8,
        10,
        13,
        15
      ],
      "matrix": [
        1.0,
        0.0,
        0.0,
        0.0,
        0.0,
        -4.371139006309477e-08,
        0.999999999999999,
        0.0,
        0.0,
        -0.999999999999999,
        -4.371139006309477e-08,
        0.0,
        0.0,
        0.0,
        0.0,
        1.0
      ],
      "name": "Collada visual scene group"
    },
    {
      "children": [
        3
      ],
      "matrix": [
        -8.94426,
        -9.971679,
        -2e-06,
        0.0,
        1e-06,
        2e-06,
        -13.395305,
        0.0,
        -9.971679,
        8.94426,
        1e-06,
        0.0,
        -21.23074,
        563.944275,
        3.1e-05,
        1.0
      ],
      "name": "NurbsPath.008"
    },
    {
      "mesh": 0,
      "name": "defaultMaterial"
    },
    {
      "children": [
        5
      ],
      "matrix": [
        2.267862,
        2.853902,
        2.082669,
        0.0,
        1.247704,
        1.570123,
        -3.510207,
        0.0,
        -1.338698,
        1.063801,
        0.0,
        0.0,
        179.281219,
        301.335083,
        15.691187,
        1.0
      ],
      "name": "Cylinder.007"
    },
    {
      "mesh": 1,
      "name": "defaultMaterial"
    },
    {
      "children": [
        7
      ],
      "matrix": [
        5.78879,
        0.0,
        3.30734,
        0.0,
        3.30734,
        -1e-06,
        -5.78879,
        0.0,
        0.0,
        2.213022,
        0.0,
        0.0,
        201.132156,
        379.571381,
        5.1e-05,
        1.0
      ],
      "name": "Cylinder.004"
    },
    {
      "mesh": 2,
      "name": "defaultMaterial"
    },
    {
      "children": [
        9
      ],
      "matrix": [
        100.0,
        0.0,
        0.0,
        0.0,
        0.0,
        100.0,
        4e-06,
        0.0,
        0.0,
        -4e-06,
        100.0,
        0.0,
        201.813263,
        283.679688,
        3.8e-05,
        1.0
      ],
      "name": "Cylinder.003"
    },
    {
      "mesh": 3,
      "name": "defaultMaterial"
    },
    {
      "children": [
        11,
        12
      ],
      "matrix": [
        42.750542,
        -1e-06,
        24.68709,
        0.0,
        24.68709,
        3e-06,
        -42.750542,
        0.0,
        0.0,
        35.602112,
        2e-06,
        0.0,
        -1.812013,
        498.75766,
        -2e-06,
        1.0
      ],
      "name": "Cylinder.002"
    },
    {
      "mesh": 4,
      "name": "defaultMaterial"
    },
    {
      "mesh": 5,
      "name": "defaultMaterial"
    },
    {
      "children": [
        14
      ],
      "matrix": [
        0.0,
        -1.535226,
        0.0,
        0.0,
        -1e-06,
        0.0,
        -1.838729,
        0.0,
        1.502559,
        0.0,
        0.0,
        0.0,
        12.109032,
        395.198975,
        0.0,
        1.0
      ],
      "name": "Cylinder.001"
    },
    {
      "mesh": 6,
      "name": "defaultMaterial"
    },
    {
      "children": [
        16
      ],
      "matrix": [
        100.0,
        0.0,
        0.0,
        0.0,
        0.0,
        -1.6e-05,
        -100.0,
        0.0,
        0.0,
        100.0,
        -1.6e-05,
        0.0,
        -1.932368,
        -142.082748,
        -1.8e-05,
        1.0
      ],
      "name": "Cylinder"
    },
    {
      "mesh": 7,
      "name": "defaultMaterial"
    }
  ],
  "samplers": [
    {
      "magFilter": 9729,
      "minFilter": 9987,
      "wrapS": 10497,
      "wrapT": 10497
    }
  ],
  "scene": 0,
  "scenes": [
    {
      "name": "Sketchfab_Scene",
      "nodes": [
        0
      ]
    }
  ],
  "textures": [
    {
      "sampler": 0,
      "source": 0
    },
    {
      "sampler": 0,
      "source": 1
    },
    {
      "sampler": 0,
      "source": 2
    },
    {
      "sampler": 0,
      "source": 3
    },
    {
      "sampler": 0,
      "source": 4
    },
    {
      "sampler": 0,
      "source": 5
    },
    {
      "sampler": 0,
      "source": 6
    },
    {
      "sampler": 0,
      "source": 7
    },
    {
      "sampler": 0,
      "source": 8
    },
    {
      "sampler": 0,
      "source": 9
    },
    {
      "sampler": 0,
      "source": 10
    },
    {
      "sampler": 0,
      "source": 11
    },
    {
      "sampler": 0,
      "source": 12
    },
    {
      "sampler": 0,
      "source": 13
    },
    {
      "sampler": 0,
      "source": 14
    },
    {
      "sampler": 0,
      "source": 15
    },
    {
      "sampler": 0,
      "source": 16
    },
    {
      "sampler": 0,
      "source": 17
    },
    {
      "sampler": 0,
      "source": 18
    },
    {
      "sampler": 0,
      "source": 19
    },
    {
      "sampler": 0,
      "source": 20
    },
    {
      "sampler": 0,
      "source": 21
    },
    {
      "sampler": 0,
      "source": 22
    },
    {
      "sampler": 0,
      "source": 23
    },
    {
      "sampler": 0,
      "source": 24
    }
  ]
}
